<?xml version="1.0" encoding="UTF-8"?>
<svg id="Layer_2" data-name="Layer 2" xmlns="http://www.w3.org/2000/svg" viewBox="0 0 248.67 325.29">
  <defs>
    <style>
      .cls-1 {
        fill: #e53535;
      }

      .cls-1, .cls-2, .cls-3, .cls-4, .cls-5, .cls-6, .cls-7, .cls-8, .cls-9, .cls-10, .cls-11, .cls-12, .cls-13, .cls-14, .cls-15, .cls-16, .cls-17, .cls-18, .cls-19, .cls-20, .cls-21, .cls-22, .cls-23, .cls-24, .cls-25 {
        stroke-width: 0px;
      }

      .cls-2 {
        fill: #390303;
      }

      .cls-3 {
        fill: #b9b9b7;
      }

      .cls-4 {
        fill: #2c0303;
      }

      .cls-5 {
        fill: #460908;
      }

      .cls-6 {
        fill: #fbe6e5;
      }

      .cls-7 {
        fill: #e43535;
      }

      .cls-8 {
        fill: #dcdcda;
      }

      .cls-9 {
        fill: #f8f7f6;
      }

      .cls-10 {
        fill: #2e0403;
      }

      .cls-11 {
        fill: #d7d7d5;
      }

      .cls-12 {
        fill: #ea3636;
      }

      .cls-13 {
        fill: #f53535;
      }

      .cls-14 {
        fill: none;
      }

      .cls-15 {
        fill: #2a0403;
      }

      .cls-16 {
        fill: #f6f6f5;
      }

      .cls-17 {
        fill: #e93635;
      }

      .cls-18 {
        fill: #852525;
      }

      .cls-19 {
        fill: #e83636;
      }

      .cls-20 {
        fill: #e63636;
      }

      .cls-21 {
        fill: #e7e7e5;
      }

      .cls-22 {
        fill: #e93535;
      }

      .cls-23 {
        fill: #330403;
      }

      .cls-24 {
        fill: #e73636;
      }

      .cls-25 {
        fill: #eeeeec;
      }
    </style>
  </defs>
  <g id="Layer_1-2" data-name="Layer 1">
    <g>
      <path class="cls-14" d="M154.11,87.67s-.46.17-1.06.17c-.31.23-.63.46-1.45.62-.32.12-.64.25-1.55.33-.51.28-1.03.55-1.99.83,0,0-.4.19-1.02.19-.32.23-.64.47-1.63.62-1.25.44-2.5.87-4.41,1.27-.59.28-1.18.55-2.32.83-.35.13-.69.26-1.56.41-.28.21-.55.42-1.39.6-.36.11-.71.22-1.66.33-.31.22-.62.45-1.46.63-.32.13-.65.25-1.55.33-.5.27-1.01.54-1.98.79,0,0-.42.18-1.04.19-.32.24-.64.48-1.46.62-.31.12-.62.24-1.55.33-.54.28-1.08.56-2.23.83-.39.12-.78.23-1.69.35-.28.21-.55.41-1.52.64-1.31.43-2.63.86-4.53,1.29-.31.23-.61.45-1.17.58,0,0-.21.17-.89.16-.83.34-1.65.68-3.17,1.03-1.06.4-2.13.8-3.79,1.17-.52.27-1.04.54-2.24.79-1.05.38-2.09.77-3.79,1.13-.58.27-1.16.55-2.3.8-.35.12-.71.24-1.61.37-.29.22-.58.44-1.42.66-.35.12-.69.25-1.61.31-.49.27-.98.53-1.96.8,0,0-.45.18-1.05.18-.31.23-.63.46-1.46.65-.32.13-.64.26-1.54.34-.51.27-1.02.54-1.99.81,0,0-.42.19-1.05.13-.56.26-1.12.53-2.04.77,0,0-.31.19-.94.17-.54.29-1.09.58-2.24.88-.38.11-.77.23-1.69.32-.28.21-.56.43-1.41.65-.35.13-.71.26-1.59.38-.28.21-.55.42-1.39.59-.36.1-.71.2-1.66.31-.31.23-.62.46-1.45.67-.32.13-.64.27-1.45.39-.37.06-.59.28-.63.59,0,0-.07,0-.66.07-.04.85-.08,1.69-.12,2.54.72-.08,1.45-.16,2.78-.25.39-.12.78-.24,1.74-.36.3-.21.6-.43,1.17-.56,0,0,.23-.17.91-.16.82-.34,1.64-.67,2.92-1,0,0,.43-.18,1.06-.13.55-.27,1.1-.53,2.26-.81.38-.13.76-.27,1.64-.4.27-.2.53-.4,1.37-.56.37-.1.73-.21,1.7-.32.31-.23.63-.46,1.45-.59.32-.12.64-.24,1.57-.33.54-.27,1.09-.54,2.34-.82,1.35-.44,2.7-.88,4.62-1.31.3-.21.6-.43,1.43-.59.33-.12.66-.24,1.59-.37.32-.22.63-.45,1.45-.59.32-.12.64-.24,1.57-.31.54-.27,1.09-.55,2.02-.81,0,0,.34-.18,1-.15.58-.27,1.16-.54,2.3-.8.36-.12.71-.24,1.64-.31.49-.28.97-.55,1.95-.83,0,0,.46-.17,1.07-.16.32-.23.64-.46,1.46-.6.31-.12.62-.24,1.56-.33.54-.28,1.08-.56,2.22-.82.39-.11.77-.22,1.71-.34.29-.22.57-.43,1.42-.63.35-.12.7-.24,1.63-.3.51-.26,1.02-.53,1.98-.78,0,0,.42-.18,1.03-.19.32-.24.64-.47,1.45-.61.31-.11.62-.23,1.56-.31.55-.28,1.1-.56,2.25-.83.38-.11.75-.22,1.7-.32.3-.22.6-.45,1.16-.58,0,0,.22-.17.91-.15.84-.34,1.67-.68,3.24-1.04,1.38-.45,2.76-.91,4.64-1.35.26-.2.52-.39,1.37-.56.37-.11.74-.21,1.7-.32.31-.22.62-.44,1.46-.62.32-.13.65-.25,1.56-.33.52-.26,1.04-.52,2.29-.8,1.37-.45,2.75-.9,4.63-1.34.27-.2.54-.41,1.38-.58.36-.1.73-.2,1.69-.3.32-.23.64-.45,1.67-.71,1.31-.66,2.56-1.56,3.95-1.95,9.08-2.53,18.25-4.73,27.27-7.45,11.41-3.44,22.7-7.27,34.76-10.82,1.75-.43,3.7-.52,5.19-1.39-1.49.87-3.44.96-5.55,1.33-.98-1.23-1.6-2.41-2.45-3.82,1.93-1.03,4.03-2.2,6.25-2.49-2.22.29-4.32,1.45-7.27,2.37-21.16,6.77-42.33,13.54-64.06,20.24-.49.27-.98.53-1.95.8ZM67.74,115.53c-.17-.34.05-.56.66-.62.09.29-.13.49-.66.62ZM71.36,113.84c-.01.22-.33.44-.93.68.02-.21.33-.44.93-.68ZM70.99,117.49c.02-.2.32-.4.9-.62-.02.2-.32.41-.9.62ZM74.38,112.95c-.01.2-.29.39-.83.61.01-.19.29-.4.83-.61ZM73.01,116.75c.47-.35,1.28-.7,2.44-1.02-.46.36-1.28.69-2.44,1.02ZM76.54,112.55c.01-.2.29-.41.84-.62-.01.2-.29.4-.84.62ZM77.02,115.6c.23-.29.78-.56,1.64-.8-.23.29-.78.56-1.64.8ZM81.35,110.72c-.22.31-.76.6-1.62.88.22-.31.76-.6,1.62-.88ZM80.98,114.42c.01-.19.28-.38.8-.59-.01.18-.28.38-.8.59ZM84.33,109.8c-.24.29-.79.56-1.67.79.24-.29.8-.56,1.67-.79ZM84,113.55c.02-.21.33-.43.94-.67-.02.21-.33.44-.94.67ZM87.35,108.86c-.21.28-.72.54-1.52.79.21-.28.72-.55,1.52-.79ZM87.01,112.6c.23-.29.77-.57,1.62-.82-.23.29-.77.56-1.62.82ZM89.41,108.52c.02-.21.33-.44.94-.67-.02.22-.33.43-.94.67ZM91.88,107.67c.2-.27.69-.54,1.47-.77-.2.28-.69.53-1.47.77ZM94,110.48c.02-.2.32-.41.91-.63-.02.2-.32.41-.91.63ZM95.5,106.54c.01-.2.3-.42.87-.64-.01.2-.3.41-.87.64ZM97,109.53c.02-.21.34-.42.95-.66-.02.2-.34.43-.95.66ZM98.61,105.58c.24-.3.82-.58,1.73-.84-.25.3-.82.58-1.73.84ZM100.02,108.61c.23-.3.77-.57,1.62-.82-.23.3-.77.57-1.62.82ZM103.02,107.65c.24-.3.82-.58,1.72-.83-.24.3-.82.57-1.72.83ZM104.79,103.63c.22-.28.74-.55,1.56-.8-.22.29-.73.55-1.56.8ZM107,106.53c.2-.29.68-.55,1.46-.81-.2.28-.68.55-1.46.81ZM110.01,105.56c.02-.22.34-.44.97-.67-.02.21-.34.44-.97.67ZM110.89,101.66c.47-.36,1.29-.71,2.46-1.05-.47.36-1.29.71-2.46,1.05ZM113.01,104.62c.22-.3.76-.58,1.61-.84-.22.3-.76.58-1.61.84ZM114.44,100.52c.02-.21.32-.43.92-.65-.02.21-.32.42-.92.65ZM116.98,103.49c.01-.2.3-.41.86-.63-.01.2-.3.41-.86.63ZM121.38,97.94c-.01.19-.29.39-.83.6.01-.19.29-.4.83-.6ZM120.01,102.52c.21-.28.72-.54,1.52-.78-.21.28-.72.54-1.52.78ZM123.01,101.59c.02-.22.34-.45.97-.69-.02.22-.34.45-.97.69ZM123.74,97.61c.22-.3.76-.58,1.61-.84-.22.3-.76.58-1.61.84ZM126.02,100.65c.23-.3.77-.59,1.65-.85-.23.31-.78.59-1.65.85ZM127.39,96.51c.02-.22.34-.46.96-.7-.01.22-.34.45-.96.7ZM129.99,99.51c.02-.21.32-.42.91-.65-.02.2-.32.43-.91.65ZM129.84,95.65c.21-.28.71-.55,1.51-.79-.21.28-.71.54-1.51.79ZM134.36,93.87c-.02.21-.33.42-.93.66.02-.2.33-.43.93-.66ZM132.01,98.78c.48-.36,1.31-.71,2.5-1.03-.48.36-1.31.7-2.5,1.03ZM136.55,93.55c.01-.19.29-.4.83-.61-.01.19-.29.39-.83.61ZM139.98,96.39c-.05-.29.21-.47.79-.57-.02.18-.28.38-.79.57ZM139.58,92.57c.25-.31.83-.58,1.75-.84-.25.3-.83.59-1.75.84ZM143,95.52c.02-.21.33-.42.94-.65-.02.2-.33.42-.94.65ZM147.35,89.82c-.02.22-.34.44-.97.69.02-.21.34-.45.97-.69ZM146.01,94.54c.22-.28.74-.54,1.56-.78-.22.28-.74.54-1.56.78ZM148.81,89.64c.21-.29.72-.57,1.54-.83-.21.29-.72.57-1.54.83ZM153.35,87.84c-.02.22-.33.44-.94.68.02-.21.33-.44.94-.68ZM152.98,92.43c.01-.19.28-.38.81-.59-.01.19-.28.39-.81.59ZM156,91.54c.02-.22.34-.43.96-.66-.02.21-.34.43-.96.66ZM154.89,87.67c.2-.27.69-.54,1.46-.77-.2.28-.69.53-1.46.77Z"/>
      <path class="cls-14" d="M154.72,45.11c-12.95-8.68-27.4-9.69-42.23-7.81-9.18,1.17-17.99,3.76-24.7,10.77-5.21,5.44-5.21,11.4-.01,16.81,1.48,1.54,3.23,2.98,5.11,3.95,20.64,10.63,41.31,10.58,61.42-1.05,9.93-5.75,9.99-14.88.41-22.67ZM137.92,63.66c-4.85,2.68-10.95,3.12-16.9,4.5-4.64-1.39-9.3-1.99-12.99-4.2-6.58-3.94-6.44-11.55-.31-16.08,7.58-5.6,22.79-5.67,30.3-.14,6.34,4.67,6.75,12.14-.1,15.92Z"/>
      <path class="cls-14" d="M157.65,39.9c1.64.29,3.73,1.38,4.86.75,6.23-3.46,12.22-7.33,18.98-11.16,2.73-1.82,5.45-3.63,8.93-5.53,7.01-3.94,14.01-7.87,21.41-12.03-1.17-1.82-1.99-3.1-3.05-4.74-8,5-15.53,9.71-23.76,14.53-2.71,1.79-5.42,3.58-8.89,5.55-6.24,3.64-12.48,7.27-18.72,10.91.08.57.16,1.15.24,1.72ZM185.37,21.66c1.46.66,2.57,1.37,3.99,2.23-2.42,1.96-5.15,3.78-8.21,5.64-1.45-.66-2.57-1.37-3.97-2.26,2.42-1.98,5.13-3.77,8.19-5.61Z"/>
      <path class="cls-14" d="M132.94,52.07c-4.61-1.03-9.36-1.41-14.88-1.83-1.57.51-3.35.71-4.67,1.6-1.51,1.03-3.62,2.67-3.61,4.03,0,1.39,2.01,3.36,3.59,4.05,6.52,2.87,13.23,2.9,19.68-.27,1.43-.7,3.22-2.56,3.18-3.82-.05-1.34-1.9-3.44-3.29-3.76Z"/>
      <path class="cls-14" d="M34.96,202.54c8.64,9.15,15.35,20.55,31.01,20.19,10.3,2.59,18.88,7.91,25.7,16.1.82.98,1.93,2.14,3.07,2.36,8.35,1.62,16.75,3.02,25.75,4.6-11.79-35.9-53.07-54.94-85.53-43.24Z"/>
      <path class="cls-14" d="M76.16,87.23c-4.89,2.79-9.78,5.6-14.5,8.67-.57.37-.19,2.2-.25,3.36.44.25.89.49,1.33.74,4.98-3.62,9.95-7.24,14.92-11.59-.51-.42-1.29-1.3-1.5-1.18Z"/>
      <path class="cls-14" d="M148.22,216.78c-1.01.86-1.42,3.48-.92,4.86,2.23,6.24,4.88,12.32,7.79,19.1,1.03-.73,2.26-1.29,3.06-2.22,9.06-10.46,20.38-16.24,34.26-16.99,1.55-.08,3.39-.65,4.51-1.65,6.17-5.49,12.16-11.19,19.1-17.64-26.44-6.77-48.49-2.02-67.81,14.55Z"/>
      <path class="cls-14" d="M17.15,172.11c40.03-13.35,75.85-6.7,107.41,19.72,6.24-4.31,11.86-8.82,18.06-12.31,6.18-3.48,12.94-5.95,20.21-9.05,23.13-7.52,46.12-6.54,69.37,1.75,1.98-6.68,3.84-12.98,5.81-19.62H11.28c2.04,6.79,3.93,13.07,5.87,19.52Z"/>
      <path class="cls-14" d="M129.34,196.24c4.55,5.72,9.08,11.43,13.21,16.62,6.86-4.2,13.6-8.33,21-12.84,16.8-7.27,34.02-8.56,51.72-3.77,1.21.33,3.43.2,3.9-.53,3.78-5.89,7.25-11.97,10.9-18.13-37.95-14.76-78.45-3.22-100.73,18.65Z"/>
      <path class="cls-14" d="M19.48,178.06c3.37,5.73,6.56,11.48,10.15,16.97.65,1,3.16,1.57,4.49,1.2,9.93-2.75,20.05-3.73,30.14-2.22,29.33,4.39,49.76,20.51,61.41,47.82.54,1.28,2.02,3.16,2.97,3.11,6.85-.39,13.68-1.2,22.07-2.04-4.5-9.39-8.34-17.42-12.61-26.05-28.28-44.77-82.74-54.79-118.62-38.79Z"/>
      <path class="cls-16" d="M235.68,73.99c-2.68.8-5.36,1.59-8.3,2.69,10.58,21.81,14.64,44.45,11.47,68.56H10.37c-4.07-37.06,5.76-69.7,32.3-95.91C78.22,14.23,120.41,6.55,167.57,23.01c.46.27.63.32,1.03.54,3.21-1.57,6.2-3.32,8.93-5.5-7.07-3.04-13.7-6.38-20.74-8.1-43.35-10.57-82.55-1.87-115.49,28.4C3.55,73.07-8.34,116.73,5.71,165.56c18.35,63.8,81.37,100.13,146.46,86.03,56.36-12.21,91.64-61.32,95.78-105.4,2.39-25.38-1-49.35-12.27-72.2ZM94.73,241.18c-1.14-.22-2.25-1.38-3.07-2.36-6.81-8.19-15.39-13.51-25.7-16.1-15.66.37-22.37-11.04-31.01-20.19,32.46-11.7,73.73,7.35,85.53,43.24-9-1.58-17.4-2.98-25.75-4.6ZM128.64,244.94c-.95.05-2.42-1.83-2.97-3.11-11.64-27.31-32.07-43.42-61.41-47.82-10.09-1.51-20.22-.53-30.14,2.22-1.33.37-3.84-.21-4.49-1.2-3.6-5.49-6.78-11.24-10.15-16.97,35.88-16,90.34-5.98,118.62,38.79,4.27,8.63,8.11,16.65,12.61,26.05-8.39.83-15.21,1.65-22.07,2.04ZM196.92,219.87c-1.12,1-2.96,1.57-4.51,1.65-13.89.75-25.2,6.53-34.26,16.99-.8.93-2.03,1.49-3.06,2.22-2.91-6.78-5.57-12.86-7.79-19.1-.49-1.38-.08-3.99.92-4.86,19.32-16.57,41.37-21.32,67.81-14.55-6.94,6.45-12.93,12.15-19.1,17.64ZM219.17,195.73c-.47.73-2.69.86-3.9.53-17.7-4.79-34.92-3.5-51.72,3.77-7.4,4.51-14.14,8.64-21,12.84-4.13-5.2-8.67-10.9-13.21-16.62,22.29-21.88,62.78-33.41,100.73-18.65-3.65,6.16-7.12,12.25-10.9,18.13ZM232.2,172.22c-23.26-8.29-46.24-9.26-69.37-1.75-7.28,3.1-14.03,5.57-20.21,9.05-6.2,3.49-11.82,8-18.06,12.31-31.56-26.42-67.38-33.07-107.41-19.72-1.94-6.45-3.83-12.73-5.87-19.52h226.74c-1.97,6.64-3.83,12.94-5.81,19.62Z"/>
      <path class="cls-19" d="M70.74,82.76s0,0,0,0c-.02,0-.01,0,0,0Z"/>
      <path class="cls-19" d="M54.79,100.61s0,0,0,0c0,.02,0,.02,0,0Z"/>
      <path class="cls-19" d="M52.76,94.75s0-.01,0-.02c-.02,0-.02.01,0,.02Z"/>
      <path class="cls-19" d="M81.85,44.82h0s-.02-.01,0,0Z"/>
      <path class="cls-19" d="M160.73,28.75s0,0,0,0c-.02,0-.01,0,0,0Z"/>
      <path class="cls-19" d="M128.72,88.74h0s-.01,0,0,0Z"/>
      <path class="cls-19" d="M134.73,86.82s0,0,.01,0c-.02,0-.02,0-.01,0Z"/>
      <path class="cls-19" d="M83.77,42.77s0,0,0,0c-.02,0-.02,0,0,0Z"/>
      <path class="cls-19" d="M82.77,43.77s0,0,0,0c-.02,0-.02,0,0,0Z"/>
      <path class="cls-19" d="M84.75,41.76s0,0,0,0c-.02,0-.01,0,0,0Z"/>
      <path class="cls-19" d="M164.91,26.47c-.25,0-.58.26-.78.32-1.05.68-1.89,1.31-3.05,1.98-.22.03-.32,0-.34-.01-.02.28-.14.49-.44.64-.1.05-.22.09-.37.13-.25.02-.55.25-.74.28-.44.29-.7.55-1.23.84-.72.35-1.17.67-1.89,1.03-.37.39-.58.63-1.15.79-1.35.72-2.45,1.41-3.88,2.15-2.31-.38-4.3-.79-6.55-1.44-.61-.27-.96-.31-1.54-.46-1.09-.25-1.94-.39-3.04-.75-.69-.24-1.13-.26-1.89-.36-.7-.11-1.09-.13-1.69-.34-.55-.2-.89-.2-1.46-.31-10.62.47-21.01,1.05-31.81,1.6-.73.1-1.05.23-1.63.37-.57.22-.87.43-1.46.62-.29-.02-.74.14-.98.16-.73.33-1.21.63-1.99.92-.3-.02-.62.18-.82.2-.45.25-.71.49-1.23.73-.27.01-.58.23-.77.25-.45.25-.7.49-1.23.73-.27.01-.57.24-.76.28-.45.29-.7.54-1.24.83-.28.03-.26.05-.27.05-1.76,1.32-3.51,2.64-5.58,4.04-.22.06-.32.04-.35.02-.13.31-.3.61-.73.99-.16.06-.23.04-.25.02-.14.31-.32.6-.75.98-.16.05-.23.04-.25.02-.12.32-.28.63-.69,1.03-.14.05-.2.03-.23.02-.48.94-1,1.82-1.79,2.85-.27.15-.35.04-.3.08-.42,1.33-.88,2.62-1.59,4.17-.26.61-.28.95-.42,1.54-.09,7.52,0,14.81-.1,22.09-.02,1.35-.73,2.69-1.52,4.14-.4.1-.47.02-.42.05-1.4,1.02-2.85,2-4.63,3.03-.23.03-.33,0-.35-.01-.16.26-.37.51-.83.76-.25.01-.55.24-.74.27-.44.29-.69.55-1.22.86-.71.37-1.14.7-1.85,1.08-1.12.67-1.96,1.28-3.12,1.93-.32.03-.31.05-.32.04-.08.31-.26.54-.78.69-.23.01-.59.29-.82.35-1.08.66-1.93,1.26-3.1,1.89-.32.02-.3.08-.32.06-.06.32-.23.56-.77.71-.23,0-.61.26-.83.31-.45.3-.67.55-1.16.85-.26.04-.27.12-.31.11-.09.31-.26.55-.74.8-.22.07-.2.19-.26.19-.04.35-.16.65-.62,1.03-.12.07-.18.08-.2.07.7,1.71,1.37,3.42,2.06,5.47.02.25-.01.36-.03.39.26.16.51.38.79.85.36.7.69,1.14,1.07,1.86.4.36.64.57.78,1.15,0,.25.27.53.32.72.35.41.65.63,1.06,1.12.11.26.5.35.67.46,2.21-.64,4.26-1.39,6.66-2.2.35-.06.49.14.43.04.77-.71,1.6-1.31,2.74-1.95.31-.04.37.04.34,0,1.01-.73,2.06-1.43,3.41-2.2.31-.07.36-.03.38-.06,2.11-1.31,4.2-2.59,6.63-3.93.33-.06.39.08.39,0,.79-.67,1.58-1.27,2.67-1.95.29-.08.56.15.42.03-.13-7.92-.13-15.73-.13-23.59,6.74,3.15,12.96,6.05,19.47,9.18.64.28.98.33,1.56.51,9.61.44,18.99.76,28.8,1.14,1.17-.04,1.9-.15,3.01-.23,8.68-3.08,16.99-6.18,25.4-9.31,1.01,3.86.54,7.08-5.2,8.18-5.03.97-9.87,2.94-15.18,4.47-.39,0-.41-.01-.42-.02-1.79.65-3.56,1.3-5.7,1.96-.27,0-.4-.03-.43-.04-1.71.66-3.49,1.32-5.62,1.97-.26,0-.36-.04-.39-.05-1.74.68-3.52,1.34-5.66,1.98-.37-.02-.64.18-.82.17-1.73.58-3.3,1.17-5.22,1.73-.36-.03-.7.18-.9.18-2.01.69-3.83,1.36-6.02,2.05-.37,0-.6.2-.75.17-1.73.57-3.32,1.16-5.26,1.75-.36,0-.62.19-.78.19-2.74.9-5.31,1.8-8.27,2.66-.38-.04-.77.13-.99.14-.72.32-1.23.63-2.05.92-.64.09-.97.21-1.56.32-1.84.59-3.42,1.19-5.36,1.79-.36,0-.62.18-.78.18-4.04,1.28-7.91,2.57-12.18,3.86-.39,0-.64.19-.79.17-4.03,1.58-7.91,3.18-12.11,4.95-.33.16-.33.48-.41.61.24,1.56.57,2.98.87,4.77-.03.36.15.72.15.91.69,1.99,1.37,3.77,2.13,5.92,1.77.64,3.49,1.24,5.17,1.12,1.61-.11,3.2-.87,4.73-1.52,6.28-2.67,11.15-2.25,17.43,2.27,13.16,9.48,28.93,9.92,44.6,8.08,10.96-1.29,21.28-4.66,28.86-13.13,2.61-2.92,3.89-7.16,5.2-11,.34-.98-1.53-2.71-2.39-4.1-1.18.94-3.24,1.74-3.41,2.83-1.34,8.71-7.65,12.54-14.82,15.32-16.36,6.34-32.82,6.26-49.16-.15-2.71-1.06-5.16-2.81-8.66-4.76,2.1-.98,3.15-1.62,4.29-1.97,43.71-13.39,87.43-26.75,131.15-40.11.46-.14.98-.1,2.09-.4,3.3-1.05,5.98-1.85,8.99-2.8,2.18-1.55,5.75-3.21,5.58-4.29-.71-4.48-1.98-9.14-4.32-12.95-.67-1.1-5.63.44-8.62.77-.98.11-1.97.22-2.95.33-2.73,1.01-5.46,2.03-8.57,3.04-16.09,5.17-31.8,10.34-48.07,15.69-.71-10.37-1.37-19.95-2.13-31.01,5.79-3.34,13.05-7.53,20.69-11.78,2.97-1.69,5.56-3.31,8.69-5.28,6.82-4.11,13.07-7.94,19.42-11.58,3.32-1.9,3.97-4.2,1.9-7.38-.73-1.11-1.34-2.3-2.01-3.45-4.27-7.38-4.32-7.3-11.7-2.95-8.57,5.06-17.27,9.9-26.02,15.16-3.09,2.08-6.08,3.82-9.07,5.56-.21.29-.41.58-.9.91-.71.37-1.15.69-1.86,1.07-.38.39-.59.63-1.16.77ZM62.75,100c-.44-.25-.89-.49-1.33-.74.06-1.16-.32-2.99.25-3.36,4.72-3.07,9.6-5.88,14.5-8.67.21-.12.99.77,1.5,1.18-4.97,4.35-9.94,7.97-14.92,11.59ZM154.31,67.78c-20.11,11.64-40.78,11.69-61.42,1.05-1.89-.97-3.63-2.41-5.11-3.95-5.2-5.41-5.2-11.37.01-16.81,6.71-7.01,15.52-9.6,24.7-10.77,14.83-1.88,29.28-.87,42.23,7.81,9.58,7.79,9.52,16.92-.41,22.67ZM220.12,66.63c2.95-.91,5.06-2.08,7.27-2.37,1.48-.19,3.11.87,4.68,1.37-.96,1.24-1.68,2.87-2.93,3.6-1.49.87-3.44.96-5.19,1.39-12.06,3.55-23.35,7.38-34.76,10.82-9.02,2.72-18.19,4.92-27.27,7.45-1.39.39-2.64,1.28-3.95,1.95-1.03.26-1.35.49-1.67.71-.96.1-1.33.2-1.69.3-.84.18-1.11.38-1.38.58-1.89.44-3.26.89-4.63,1.34-1.25.27-1.77.53-2.29.8-.92.08-1.24.21-1.56.33-.83.18-1.15.4-1.46.62-.96.11-1.33.22-1.7.32-.84.17-1.1.36-1.37.56-1.88.44-3.26.89-4.64,1.35-1.56.36-2.4.7-3.24,1.04-.69-.01-.91.15-.91.15-.56.13-.86.35-1.16.58-.95.11-1.33.21-1.7.32-1.14.26-1.69.54-2.25.83-.94.08-1.25.2-1.56.31-.81.13-1.13.37-1.45.61-.62,0-1.03.19-1.03.19-.96.25-1.47.51-1.98.78-.93.06-1.28.18-1.63.3-.84.2-1.13.41-1.42.63-.94.11-1.32.22-1.71.34-1.15.26-1.68.54-2.22.82-.93.09-1.24.21-1.56.33-.82.13-1.14.36-1.46.6-.61,0-1.07.16-1.07.16-.98.28-1.46.55-1.95.83-.93.07-1.29.19-1.64.31-1.15.26-1.72.53-2.3.8-.65-.03-1,.15-1,.15-.93.26-1.48.54-2.02.81-.94.07-1.26.19-1.57.31-.82.14-1.14.36-1.45.59-.92.14-1.25.26-1.59.37-.83.16-1.13.37-1.43.59-1.91.43-3.27.87-4.62,1.31-1.25.28-1.8.55-2.34.82-.93.09-1.25.21-1.57.33-.82.13-1.13.36-1.45.59-.96.11-1.33.22-1.7.32-.84.15-1.11.36-1.37.56-.89.13-1.26.27-1.64.4-1.16.27-1.71.54-2.26.81-.63-.05-1.06.13-1.06.13-1.28.33-2.1.67-2.92,1-.68,0-.91.16-.91.16-.57.14-.87.35-1.17.56-.95.12-1.34.24-1.74.36-1.34.09-2.06.17-2.78.25.04-.85.08-1.69.12-2.54.59-.08.66-.07.66-.07.04-.31.26-.52.63-.59.81-.12,1.13-.25,1.45-.39.83-.2,1.14-.44,1.45-.67.95-.11,1.31-.21,1.66-.31.83-.17,1.11-.38,1.39-.59.88-.12,1.24-.25,1.59-.38.85-.22,1.13-.43,1.41-.65.92-.1,1.31-.21,1.69-.32,1.15-.3,1.69-.59,2.24-.88.63.02.94-.17.94-.17.92-.24,1.48-.51,2.04-.77.63.06,1.05-.13,1.05-.13.97-.27,1.48-.54,1.99-.81.91-.08,1.23-.21,1.54-.34.83-.19,1.14-.42,1.46-.65.6,0,1.05-.18,1.05-.18.98-.27,1.47-.53,1.96-.8.92-.06,1.26-.18,1.61-.31.84-.22,1.13-.44,1.42-.66.91-.13,1.26-.25,1.61-.37,1.14-.26,1.72-.53,2.3-.8,1.7-.36,2.75-.75,3.79-1.13,1.2-.25,1.72-.52,2.24-.79,1.66-.36,2.73-.77,3.79-1.17,1.52-.35,2.34-.69,3.17-1.03.69,0,.89-.16.89-.16.55-.13.86-.35,1.17-.58,1.9-.43,3.21-.86,4.53-1.29.97-.22,1.25-.43,1.52-.64.92-.12,1.3-.24,1.69-.35,1.15-.28,1.69-.55,2.23-.83.93-.09,1.24-.21,1.55-.33.81-.14,1.14-.38,1.46-.62.62,0,1.04-.19,1.04-.19.97-.25,1.47-.52,1.98-.79.91-.08,1.23-.21,1.55-.33.83-.18,1.14-.41,1.46-.63.94-.11,1.3-.22,1.66-.33.84-.18,1.12-.39,1.39-.6.87-.14,1.22-.28,1.56-.41,1.15-.28,1.74-.55,2.32-.83,1.91-.4,3.16-.83,4.41-1.27.98-.15,1.31-.38,1.63-.62.62,0,1.02-.19,1.02-.19.96-.28,1.47-.55,1.99-.83.92-.09,1.24-.21,1.55-.33.82-.16,1.14-.39,1.45-.62.6,0,1.06-.17,1.06-.17.98-.27,1.47-.53,1.95-.8,21.73-6.71,42.89-13.47,64.06-20.24ZM176.13,27.27c3.47-1.97,6.18-3.76,8.89-5.55,8.23-4.82,15.76-9.53,23.76-14.53,1.06,1.65,1.88,2.92,3.05,4.74-7.4,4.16-14.4,8.09-21.41,12.03-3.48,1.9-6.2,3.71-8.93,5.53-6.76,3.83-12.75,7.7-18.98,11.16-1.13.63-3.22-.46-4.86-.75-.08-.57-.16-1.15-.24-1.72,6.24-3.64,12.48-7.27,18.72-10.91Z"/>
      <path class="cls-17" d="M80.33,301.45v-26.5c-6.27-1.13-6.34-1.08-6.38,4.62-.02,3.15,0,6.3,0,9.44-4.15-3.71-7.22-7.42-9.9-11.41-2.21-3.28-4.8-4.18-8.86-2.51,0,7.24,0,14.52,0,22.26-.42,6.25,3.53,4.02,6.62,4.14.22-4.51.43-8.81.65-13.45,7.49,3.28,7.32,15.28,17.87,13.41Z"/>
      <path class="cls-20" d="M109.2,288.02c-1.94-.17-3.49-.17-4.96-.17-.84,7.77-4.37,10.19-9.22,6.93-3.5-2.35-4.41-5.82-3.06-9.65,1.25-3.56,4.14-5.22,7.84-4.74,2.24.29,4.38,1.29,6.99,2.1,1-1.24,2.1-2.61,3.17-3.94-5.82-6.36-16.46-5.36-21.87-.2-4.6,4.39-5.43,12.03-1.83,17.38,4.07,6.04,11.97,8.04,19.64,4.97,4.75-1.9,5.47-4.33,3.3-12.69Z"/>
      <path class="cls-12" d="M228.58,274.82c-1.99-.04-3.98-.08-6.43-.11-.46.01-.42.07-.42.07-.06,3.11-.11,6.22-.19,9.33,0,.3-.22.59-.53,1.37-1.53.07-3.28.18-5.02.22-1.6.04-3.21,0-5.52,0,0-3.33,0-6.22.01-9.72.01-.62.01-.98.01-.98-1.99-.13-3.98-.25-6.39-.35-.43.03-.49.02-.49.02,0,8.67,0,17.35.03,26.51.03.49.08.44.08.44,1.22-.02,2.45-.05,3.76-.06.82-.04,1.69-.07,2.63-.1-.23.03-.48.06-.73.09.25,0,.48,0,.74,0,.44.04.26,0,.26,0,.01-1.64.23-3.32,0-4.93-.63-4.54,1.14-5.92,5.72-5.83,4.14.08,6.29.86,5.57,5.43-.22,1.44.01,2.95.49,4.92,2.39.46,4.32.44,6.26.42.03-8.63.06-17.27.15-26.37.06-.47-.02-.4-.02-.4Z"/>
      <path class="cls-17" d="M50.77,297.8c0-.81-.04-.99-.07-1.17-3.83-.05-7.68.15-11.46-.3-1.22-.15-2.24-2-3.35-3.07,1.1-.86,2.13-2.3,3.32-2.47,2.78-.38,5.64-.15,8.96-.13.48.03.46-.03.46-.03.05-1.37.09-2.74.1-4.51-.04-.41-.04-.51-.04-.51-2.63,0-5.26.04-7.89-.01-2.21-.05-4.93.62-4.91-3.06.01-3.94,2.94-2.53,5.76-2.66,1.49.1,2.21.13,2.94.16,1.42-.09,2.84-.17,4.97-.46.81-1.75.9-3.31,1.02-5.26-6.66,0-12.64-.12-18.61.11-1.03.04-2.86,1.51-2.88,2.35-.22,8.11-.13,16.24-.13,25.45,7.74-.53,14.87-1.03,22-1.52-.07-.75-.13-1.51-.17-2.9Z"/>
      <path class="cls-24" d="M134.09,295.89c-3.18-.62-6.26-1.73-9.49-2.68-3.33,3.99-3.18,4.65,1.35,6.87,5.09,2.5,10.21,2.27,15.4.45.16-.17.33-.33.57-.51.12-.1.26-.21.46-.34,0,.01,0,.03,0,.05,0,0,.01,0,.02-.01.28-.03.22-.06.22-.06.12-.18.24-.37.43-.57.09-.11.21-.23.37-.37,0,.01,0,.03,0,.04,0,0,0,0,.01-.01.27-.05.21-.08.21-.08.16-.32.31-.64.73-1.29.26-.33.46-.68.46-.68.2-7.76-.54-8.52-8.12-11.29-2.1-.77-3.71-2.85-5.55-4.33,2.44-.11,4.88-.37,7.3-.25,1.24.06,2.45.79,4.58,1.54.28-2.23.52-4.1.39-6.29-.36-.32-.7-.52-.7-.52-4.05-.31-8.09-.62-12.91-.81-4.37,1.82-6.76,4.29-6.2,8.62.54,4.16,3.63,5.6,7.11,6.64,1.43.42,2.95.74,4.19,1.5.97.59,1.57,1.79,2.34,2.71-1.06.59-2.25,1.84-3.16,1.66Z"/>
      <path class="cls-19" d="M169.63,299.67c.14-.21.28-.42.54-.66.08-.08.16-.15.27-.24,0,0,0,0,0,0,0,0,0,0,0,0,.25-.07.24-.07.24-.07.14-.32.28-.64.74-1.38.7-1.15,1.08-1.88,1.47-2.61.04-.32.07-.64.31-1.13.2-.16.17-.2.17-.2.04-5.8.07-11.61.14-17.85-2.03-.62-4.1-.79-6.86-1.03,0,5.3.09,10.02-.02,14.73-.14,5.96-2.74,7.73-8.78,5.77-.15-.31-.21-.24-.21-.24-.73-1.88-1.96-3.73-2.1-5.66-.32-4.43-.11-8.9-.3-13.89-.19-.53-.5-.81-.5-.81-1.73.07-3.45.13-5.67.47-.56.43-.63.6-.69.76.08,4.57.3,9.15.2,13.72-.1,4.41,1.21,8.03,5,10.96.11.33.23.23.23.23,5.13,1.68,10.2,2.07,15.5-.82.4-.04.34-.07.34-.07Z"/>
      <path class="cls-7" d="M198.31,298.3c.29-.31.52-.6.52-.6.06-.24.13-.49.28-.76.05-.1.11-.2.19-.31.01,0,.01.02.02.03.14-.07.15-.16.15-.16-.17-2.02-.34-4.05-.56-6.45-2.54-1.73-5.03-3.08-7.88-4.58-.48-.11-.74-.19-.96-.38-.07-.06-.14-.13-.22-.23-.1-.17-.14-.14-.15-.17-.57-.17-1.14-.31-1.88-.7-.17-.25-.12-.29-.14-.26-.67-.74-1.31-1.51-1.96-2.29.88-.57,1.84-1.71,2.64-1.6,2.26.31,4.45,1.12,6.97,1.95.78.18,1.25.15,2.06,0,.72-1.52,1.1-2.93,1.14-4.78-.84-.77-1.34-1.11-1.84-1.46-.31-.11-.61-.21-1.24-.6-.32-.28-.76-.37-.76-.37-3.36.03-6.72.06-10.67.19-.59.1-.93.12-.93.12-.51.36-1.02.73-1.6,1.09-.38.28-.8.56-1.3.85.06-.07.13-.15.2-.22-.09.05-.17.1-.27.14-.38,0-.21.12-.21.12-.49.96-.98,1.91-1.66,3.25-.19.38-.35.64-.35.64-.33,6.43,4.22,8.13,9.13,9.87,1.91.68,3.37,2.65,5.03,4.03-2.27.34-4.59,1.15-6.79.88-2.02-.25-3.89-1.66-6.25-2.75-.75,1.39-1.5,2.79-2.15,4.72.34.79.57,1.06.8,1.32.3.12.6.24,1.25.62.34.26.76.48.76.48.32.07.64.14,1.3.45.34.24.68.45.68.45,3.05.3,6.09.61,9.89.88,1.19-.07,1.64-.1,2.08-.13.48-.31.96-.61,1.88-1.15.91-.45,1.38-.66,1.86-.88.22-.32.43-.63.94-1.26Z"/>
      <path class="cls-9" d="M196.12,28.64c-2.93,1.69-5.52,3.31-8.12,4.93,10.99,7.24,20.29,16.28,28.99,26.86,3.26-.7,5.99-1.72,8.53-3.02-8.27-11.36-18.01-20.77-29.4-28.77Z"/>
      <path class="cls-1" d="M21,274.21c-3.32.1-6.65.09-9.97,0-2.76-.07-3.45,1.41-3.11,4.19.72.83,1.34,1.52,2.05,1.63,7.14,1.13,7.14,1.1,7.12,8.55,0,1.16,0,2.33-.03,3.49-.09,3.47-1.96,4.33-4.97,3.24-1.2-.43-2.29-1.16-4.89-2.51,0,2.86-.79,5.52.14,6.46,3.17,3.21,7.45,3.56,11.6,2.1,3.66-1.29,5.41-4.32,5.49-8.14.11-5.15-.02-10.3.09-15.45.06-2.56-.97-3.62-3.52-3.55Z"/>
      <path class="cls-13" d="M234.45,276.12c-.33.84-.32,1.23-.3,1.63.16,7.4.31,14.8.35,22.73-.11.54-.02.65-.02.65.25-.09.48-.08.75.11.09.06.19.15.3.26,0,0,0,0,0,0,0,0,0,0,0,0,.15.19.16.17.16.17,1.5-.2,3-.39,4.9-1.15.38-8.65.36-16.74.33-24.83-2.04,0-4.08-.02-6.47.42Z"/>
      <path class="cls-8" d="M98.2,323.66c.87-4.97,3.87-3.1,6.63-1.88.73-2.33,1.34-4.29,1.87-6.64-2.82-1.37-5.54-2.35-8.49-3.41v11.93Z"/>
      <path class="cls-11" d="M111.36,320.28c1.06-.4,2.12-.81,3.62-1.22.44-.66.62-1.82.44-1.88-1.29-.41-2.65-.6-3.99-.86l.12-1.27c1.96-.37,3.91-.74,5.87-1.11-.08-.37-.16-.74-.23-1.11h-7.71v10.48h8.02c.03-.34.06-.68.08-1.02-1.97-.3-3.93-.59-5.9-.89-.1-.38-.2-.75-.31-1.13Z"/>
      <path class="cls-25" d="M171.93,322.52c.12.14.25.28.38.41.46-.23.47-.49.47-.49-.26,0-.55.04-.85.08Z"/>
      <path class="cls-25" d="M169.71,313.63c-1.86-.39-4.19-.89-6.64-1.41v13.07c1.89-4.04,3.07-7.04,5.97-2.8.31.46,1.69.18,2.89.03-2.07-2.29-4.05-4.76-2.22-8.89Z"/>
      <path class="cls-11" d="M172.74,322.76s.03-.07.05-.1c-.03-.08-.04.06-.05.1Z"/>
      <path class="cls-11" d="M172.79,322.66s.02.1.04.23c1.88-.18,3.71-1.35,5.51-1.3,1.91.05,3.8,1.24,6.27,2.14-1.94-4.21-3.62-7.83-5.99-12.95-2.4,4.9-4.13,8.42-5.83,11.88Z"/>
      <path class="cls-11" d="M143.07,312.6c-1.53,2.8-3.05,5.6-4.74,8.77.08,1.01.32,1.66.56,2.3,3.13-4.17,6.5-1.85,10.4.53-.66-1.68-.87-2.45-1.25-3.12-1.63-2.84-3.31-5.66-4.97-8.48Z"/>
      <path class="cls-11" d="M83.74,317.1h-4.53c-.44-1.71-.83-3.2-1.22-4.7l-1.56.25c.22,3.66.44,7.33,1.13,10.98.86-1.36,1.26-2.72,1.68-4.13h4.4c.5,1.54.95,2.91,1.4,4.29l.77-.19v-10.9c-.35-.02-.69-.03-1.04-.05-.34,1.48-.69,2.96-1.03,4.45Z"/>
      <path class="cls-21" d="M193.28,319.56c-2.39-2.83-4.34-5.16-6.3-7.48l-1.26.87c0,1.46,0,2.93,0,4.84,0,2.26,0,4.08,0,5.9.6.02,1.19.04,1.79.05.16-2.16.33-4.32.53-6.97,2.47,2.85,4.45,5.16,7.06,8.17v-12.27c-.38-.02-.76-.05-1.14-.07-.21,2.19-.43,4.37-.68,6.96Z"/>
      <path class="cls-11" d="M128.37,313.29c-1.65-.22-3.02-.95-4.12-.66-1.68.45-3.16,1.62-4.73,2.49,1.04,1.24,2.02,2.56,3.15,3.71.71.72,1.67,1.2,2.52,1.78-.12.36-.23.72-.35,1.08-1.89-.22-3.79-.43-7.08-.8,1.91,1.45,2.81,2.67,3.51,2.56,2.09-.31,4.11-1.14,6.16-1.77-1.1-1.52-2.12-3.11-3.32-4.54-.6-.72-1.52-1.18-2.42-1.84,2.71-.59,4.87-1.06,7.03-1.53.08-.17.1-.34-.34-.47Z"/>
      <path class="cls-8" d="M51.7,314.6c0-.53,0-1.06.01-1.6-2.11.1-5.17-.67-6.16.43-4.95,5.49,4.34,4.29,4.15,8.26-2.09-.2-3.98-.39-6.45-.63,4.56,3.94,6.79,3.63,9.1-1.05-1.95-1.76-3.8-3.15-6.36-5.07,2.49-.15,4.1-.25,5.71-.35Z"/>
      <path class="cls-8" d="M68.65,314.64h5.11c-.04-.63-.08-1.26-.12-1.9-2.23.32-5.62-.15-6.5,1.11-3.57,5.13,3.91,4.06,4.97,7.78-2.42-.16-4.37-.28-6.31-.41-.06.43-.12.87-.18,1.3,1.76.41,3.52.82,5.67,1.19,8.56-5.85-2.25-5.49-2.64-9.07Z"/>
      <path class="cls-8" d="M61.97,315.61c-.51,2.27,1.46,6.21-2.87,6.03-4.17-.18-1.98-4.06-2.57-6.32-.24-.92-.48-1.83-.72-2.74-.43.11-.86.21-1.28.32.37,3.75-2.28,8.17,3.54,10.83,6.19-.64,7.82-4.45,4.75-11.7-.39,1.64-.62,2.61-.84,3.59Z"/>
      <path class="cls-8" d="M197.02,313.87c1.15.43,2.3.86,3.98,1.49v8.34c.33.03.65.06.98.09.22-.67.44-1.35.66-2.46.66-3.11,1.32-5.79,1.94-8.3h-7.47c-.03.28-.06.56-.09.84Z"/>
      <path class="cls-8" d="M152.5,317.6c-.05-1.67-.37-3.33-.56-5-2.85,8.48-1.53,11.04,4.72,11.01.04-.43.08-.85-.35-1.56-3.69,0-3.74-2.15-3.81-4.45Z"/>
      <path class="cls-21" d="M132.08,312.58c-1.13.05-2.25.26-3.35.52.07.31.05.48.31.97,1.11,1.4,2.27,2.37,2.57,3.57.48,1.96.4,4.07.55,6.11.44-.03.88-.07,1.32-.1v-8.36c1.56-.71,2.66-1.22,3.77-1.72-1.92-1.01-3.55-1.06-5.16-.99Z"/>
      <path class="cls-3" d="M156.73,322.01c.01.75-.03,1.17.3,1.6,3.91-3.25,4.45-6.93,1.67-11.55-.73,3.5-1.38,6.56-1.97,9.94Z"/>
      <path class="cls-4" d="M181.77,301.21c3.37.46,6.63.56,9.46.6-3.48-.36-6.52-.66-9.46-.6Z"/>
      <path class="cls-5" d="M44.68,280.31c1.73.06,3.36-.17,4.58-.48-1.84.01-3.26.1-4.58.48Z"/>
      <path class="cls-2" d="M199.47,276.67c-.23-.02-.69.05-.66.41-.34,1.78-.72,3.2-1.11,4.61.68-1.06,1.35-2.12,2.03-3.82,0-.82-.02-1.01-.27-1.21Z"/>
      <path class="cls-4" d="M207.5,301.58c-1.29.06-2.46.15-3.52.35,2.04.02,3.87-.17,5.42-.36.24-.03.5-.06.73-.09-.94.03-1.81.06-2.63.1Z"/>
      <path class="cls-18" d="M240.55,301.02c-1.87.27-3.37.47-4.59.85,1.84-.19,3.4-.56,4.59-.85Z"/>
      <path class="cls-4" d="M181.47,275.99c.52-.38.94-.75,1.21-1.14-1.06.58-1.8,1.2-2.31,1.77-.07.07-.14.15-.2.22.49-.29.92-.57,1.3-.85Z"/>
      <path class="cls-4" d="M178.2,279.99c.72-1.19,1.21-2.14,1.31-3.09-.78,1.11-1.16,2.22-1.31,3.09Z"/>
      <path class="cls-4" d="M193.8,301.82c.73-.24,1.29-.71,1.56-1.16-.77.32-1.25.63-1.56,1.16Z"/>
      <path class="cls-5" d="M50.84,298.06c-.03,1.12.03,1.88.3,2.43.07-1.07-.07-1.93-.3-2.43Z"/>
      <path class="cls-10" d="M143.03,299.09c-.15.19-.22.36-.18.48.4-.35.58-.61.55-.81,0-.01,0-.03,0-.04-.16.14-.27.26-.37.37Z"/>
      <path class="cls-10" d="M170.16,299c-.24.24-.34.44-.29.59.43-.35.61-.62.56-.82,0,0,0,0,0,0-.1.08-.19.16-.27.24Z"/>
      <path class="cls-4" d="M178.68,299.43c-.41-.35-.71-.47-.89-.38.36.47.65.6.89.38Z"/>
      <path class="cls-4" d="M197.66,299.48c.49-.43.69-.78.62-.99-.48.45-.7.76-.62.99Z"/>
      <path class="cls-10" d="M141.92,300.02c-.2.18-.3.33-.28.47.49-.29.72-.55.73-.76,0-.02.01-.03,0-.05-.19.12-.34.23-.46.34Z"/>
      <path class="cls-10" d="M170.91,298.57c.38-.44.53-.76.43-.95-.38.44-.53.76-.43.95Z"/>
      <path class="cls-10" d="M143.87,298.55c.4-.45.54-.78.45-.97-.39.45-.55.77-.45.97Z"/>
      <path class="cls-4" d="M179.83,300.13c.42.42.73.5.94.24-.46-.29-.78-.36-.94-.24Z"/>
      <path class="cls-4" d="M199.1,296.94c-.14.28-.16.49-.07.62.43-.38.52-.68.28-.91,0,0-.01-.02-.02-.03-.08.11-.14.22-.19.31Z"/>
      <path class="cls-10" d="M173.06,294.55c.41-.44.46-.76.12-.95-.24.46-.28.79-.12.95Z"/>
      <path class="cls-18" d="M235.22,301.25c-.26-.17-.47-.14-.62.1.44.25.76.29.92.16,0,0,0,0,0,0-.11-.11-.21-.2-.3-.26Z"/>
      <path class="cls-4" d="M195.65,275c.41.35.71.45.88.37-.37-.43-.65-.57-.88-.37Z"/>
      <path class="cls-23" d="M167.78,23.58c-.09.6-.11.84.15,1.05.48-.33.69-.62.67-1.08-.4-.22-.58-.27-.83.03Z"/>
      <path class="cls-6" d="M223.6,70.56c2.11-.37,4.06-.46,5.55-1.33,1.25-.73,1.97-2.37,2.93-3.6-1.57-.5-3.2-1.56-4.68-1.37-2.22.29-4.32,1.45-6.25,2.49.85,1.41,1.47,2.59,2.45,3.82Z"/>
      <path class="cls-6" d="M189.36,23.9c-1.42-.86-2.52-1.57-3.99-2.23-3.06,1.85-5.77,3.64-8.19,5.61,1.4.89,2.51,1.6,3.97,2.26,3.07-1.86,5.79-3.68,8.21-5.64Z"/>
      <path class="cls-23" d="M72.12,106.83c4.27-1.29,8.15-2.58,11.57-3.95-4.29,1.26-8.13,2.61-11.57,3.95Z"/>
      <path class="cls-23" d="M95.04,99.63c2.95-.86,5.53-1.76,7.67-2.74-2.97.85-5.51,1.77-7.67,2.74Z"/>
      <path class="cls-2" d="M80.07,96.48c-2.43,1.34-4.52,2.62-6.23,3.99,2.44-1.29,4.5-2.67,6.23-3.99Z"/>
      <path class="cls-23" d="M85.09,41.74c2.07-1.4,3.82-2.73,5.19-4.06-2.09,1.37-3.8,2.76-5.19,4.06Z"/>
      <path class="cls-23" d="M144.47,33.18c2.25.65,4.24,1.07,6.12,1.1-2.19-.7-4.29-1.02-6.12-1.1Z"/>
      <path class="cls-15" d="M123.05,90.72c2.15-.64,3.93-1.3,5.29-1.99-2.16.63-3.91,1.3-5.29,1.99Z"/>
      <path class="cls-15" d="M129.1,88.79c2.14-.66,3.92-1.32,5.28-2.02-2.16.64-3.9,1.33-5.28,2.02Z"/>
      <path class="cls-15" d="M135.15,86.86c2.14-.66,3.91-1.31,5.26-2.04-2.16.63-3.89,1.34-5.26,2.04Z"/>
      <path class="cls-15" d="M110.1,94.86c2.19-.68,4-1.36,5.39-2.09-2.21.67-3.98,1.38-5.39,2.09Z"/>
      <path class="cls-23" d="M71.1,82.77c1.78-1.03,3.22-2.02,4.29-3.03-1.79,1.01-3.21,2.04-4.29,3.03Z"/>
      <path class="cls-23" d="M61.95,124.16c-.75-2.15-1.44-3.93-2.18-5.29.71,2.17,1.48,3.91,2.18,5.29Z"/>
      <path class="cls-23" d="M59.67,117.33c-.3-1.79-.62-3.21-1.22-4.4.22,1.75.7,3.25,1.22,4.4Z"/>
      <path class="cls-23" d="M85.08,102.79c1.94-.6,3.52-1.2,4.67-1.89-1.97.57-3.5,1.22-4.67,1.89Z"/>
      <path class="cls-23" d="M104.09,96.78c1.95-.59,3.53-1.18,4.68-1.86-1.97.56-3.51,1.21-4.68,1.86Z"/>
      <path class="cls-15" d="M117.02,92.63c1.92-.56,3.49-1.15,4.63-1.8-1.94.55-3.47,1.16-4.63,1.8Z"/>
      <path class="cls-23" d="M142.64,32.29c-1.03-.39-2.01-.46-2.74-.32,1.1.36,1.95.49,2.74.32Z"/>
      <path class="cls-23" d="M78.17,51.92c.7-1.55,1.17-2.84,1.25-4.08-.75,1.48-1.12,2.91-1.25,4.08Z"/>
      <path class="cls-2" d="M73.06,100.46c-1.36.77-2.4,1.47-3.06,2.2,1.38-.74,2.38-1.5,3.06-2.2Z"/>
      <path class="cls-23" d="M80.06,47.66c.79-1.03,1.31-1.91,1.46-2.79-.82.98-1.28,1.96-1.46,2.79Z"/>
      <path class="cls-2" d="M66.87,104.55c1.16-.61,1.96-1.27,2.44-1.9-1.14.64-1.97,1.24-2.44,1.9Z"/>
      <path class="cls-23" d="M60.49,88.76c-1.19.61-2.01,1.25-2.52,1.86,1.17-.63,2.03-1.23,2.52-1.86Z"/>
      <path class="cls-23" d="M163.55,26.79c-1.18.64-1.99,1.33-2.48,1.97,1.16-.67,2.01-1.3,2.48-1.97Z"/>
      <path class="cls-2" d="M80.84,96.49c1.11-.63,1.85-1.33,2.29-1.96-1.08.68-1.87,1.28-2.29,1.96Z"/>
      <path class="cls-23" d="M65.47,85.74c-1.18.62-1.99,1.28-2.49,1.91,1.16-.64,2-1.26,2.49-1.91Z"/>
      <path class="cls-10" d="M134.51,97.75c-1.19.32-2.02.68-2.5,1.03,1.18-.33,2.02-.67,2.5-1.03Z"/>
      <path class="cls-10" d="M110.89,101.66c1.17-.33,1.99-.69,2.46-1.05-1.17.34-1.99.68-2.46,1.05Z"/>
      <path class="cls-10" d="M75.45,115.73c-1.16.33-1.97.67-2.44,1.02,1.16-.33,1.98-.67,2.44-1.02Z"/>
      <path class="cls-10" d="M127.66,99.8c-.87.26-1.42.55-1.65.85.87-.27,1.42-.55,1.65-.85Z"/>
      <path class="cls-23" d="M98.44,33.71c-.78.29-1.27.59-1.46.91.78-.28,1.27-.59,1.46-.91Z"/>
      <path class="cls-10" d="M106.35,102.83c-.82.25-1.34.52-1.56.8.82-.25,1.34-.52,1.56-.8Z"/>
      <path class="cls-10" d="M107,106.53c.77-.25,1.26-.53,1.46-.81-.77.26-1.26.52-1.46.81Z"/>
      <path class="cls-10" d="M121.53,101.75c-.8.24-1.31.49-1.52.78.8-.23,1.31-.5,1.52-.78Z"/>
      <path class="cls-10" d="M141.34,91.73c-.92.26-1.51.53-1.75.84.92-.25,1.51-.54,1.75-.84Z"/>
      <path class="cls-10" d="M148.81,89.64c.82-.26,1.33-.54,1.54-.83-.81.26-1.33.54-1.54.83Z"/>
      <path class="cls-23" d="M93.52,99.75c-.82.28-1.32.6-1.52.94.81-.29,1.32-.6,1.52-.94Z"/>
      <path class="cls-10" d="M156.35,86.9c-.77.23-1.26.5-1.46.77.77-.24,1.26-.49,1.46-.77Z"/>
      <path class="cls-10" d="M147.57,93.76c-.82.24-1.34.5-1.56.78.82-.24,1.34-.5,1.56-.78Z"/>
      <path class="cls-10" d="M125.35,96.77c-.85.26-1.39.54-1.61.84.85-.26,1.38-.54,1.61-.84Z"/>
      <path class="cls-10" d="M131.35,94.86c-.8.25-1.3.51-1.51.79.8-.25,1.3-.51,1.51-.79Z"/>
      <path class="cls-10" d="M93.35,106.9c-.77.24-1.26.5-1.47.77.77-.24,1.26-.49,1.47-.77Z"/>
      <path class="cls-10" d="M85.82,109.65c.81-.25,1.31-.51,1.52-.79-.8.24-1.31.51-1.52.79Z"/>
      <path class="cls-10" d="M101.64,107.79c-.86.25-1.4.52-1.62.82.86-.25,1.4-.52,1.62-.82Z"/>
      <path class="cls-10" d="M82.66,110.59c.88-.23,1.43-.5,1.67-.79-.88.23-1.44.5-1.67.79Z"/>
      <path class="cls-10" d="M78.66,114.8c-.87.24-1.41.51-1.64.8.86-.24,1.41-.51,1.64-.8Z"/>
      <path class="cls-10" d="M104.74,106.83c-.91.25-1.48.53-1.72.83.9-.25,1.48-.53,1.72-.83Z"/>
      <path class="cls-10" d="M88.64,111.79c-.86.25-1.39.53-1.62.82.85-.26,1.4-.52,1.62-.82Z"/>
      <path class="cls-10" d="M81.35,110.72c-.86.28-1.4.57-1.62.88.86-.28,1.4-.58,1.62-.88Z"/>
      <path class="cls-10" d="M98.61,105.58c.91-.26,1.48-.54,1.73-.84-.91.26-1.49.53-1.73.84Z"/>
      <path class="cls-10" d="M114.62,103.78c-.85.26-1.38.54-1.61.84.85-.26,1.39-.54,1.61-.84Z"/>
      <path class="cls-10" d="M89.41,108.52c.61-.24.93-.46.94-.67-.61.23-.93.46-.94.67Z"/>
      <path class="cls-10" d="M94,110.48c.58-.21.89-.43.91-.63-.58.22-.89.42-.91.63Z"/>
      <path class="cls-10" d="M97,109.53c.61-.23.93-.46.95-.66-.61.24-.93.45-.95.66Z"/>
      <path class="cls-10" d="M134.36,93.87c-.6.23-.92.45-.93.66.6-.23.92-.45.93-.66Z"/>
      <path class="cls-23" d="M53.32,93.78c-.46.37-.58.67-.35.89.46-.38.57-.68.35-.89Z"/>
      <path class="cls-10" d="M136.55,93.55c.54-.22.82-.42.83-.61-.54.22-.82.42-.83.61Z"/>
      <path class="cls-23" d="M68.71,83.86c-.53.3-.78.56-.76.79.53-.3.78-.56.76-.79Z"/>
      <path class="cls-23" d="M70.55,82.82c-.55.18-.77.4-.65.7.46-.26.67-.5.65-.7Z"/>
      <path class="cls-23" d="M83.56,42.87c-.44.38-.62.67-.54.88.43-.38.62-.67.54-.88Z"/>
      <path class="cls-23" d="M54.34,92.74c-.46.26-.63.5-.5.72.49-.24.65-.49.5-.72Z"/>
      <path class="cls-10" d="M152.98,92.43c.53-.2.79-.4.81-.59-.52.21-.79.4-.81.59Z"/>
      <path class="cls-23" d="M84.55,41.86c-.43.38-.6.68-.53.89.43-.38.6-.68.53-.89Z"/>
      <path class="cls-23" d="M55.57,91.8c-.48.3-.71.54-.68.75.48-.29.71-.55.68-.75Z"/>
      <path class="cls-23" d="M82.56,43.87c-.42.4-.57.71-.48.93.41-.4.58-.71.48-.93Z"/>
      <path class="cls-10" d="M95.5,106.54c.57-.23.86-.44.87-.64-.57.22-.86.44-.87.64Z"/>
      <path class="cls-10" d="M156,91.54c.62-.23.93-.45.96-.66-.62.23-.94.45-.96.66Z"/>
      <path class="cls-23" d="M57.42,90.73c-.47.2-.65.4-.54.67.54-.15.71-.39.54-.67Z"/>
      <path class="cls-23" d="M155.55,31.77c-.54.18-.76.41-.64.7.57-.16.78-.4.64-.7Z"/>
      <path class="cls-10" d="M67.74,115.53c.53-.14.76-.33.66-.62-.61.06-.83.28-.66.62Z"/>
      <path class="cls-23" d="M160.55,28.82c-.54.19-.75.41-.63.71.15-.04.27-.08.37-.13.3-.15.38-.34.26-.58Z"/>
      <path class="cls-23" d="M54.83,100.8c.28.48.53.7.75.67-.28-.48-.54-.7-.75-.67Z"/>
      <path class="cls-23" d="M158.71,29.87c-.53.29-.78.56-.76.78.53-.3.79-.55.76-.78Z"/>
      <path class="cls-10" d="M110.01,105.56c.63-.23.95-.46.97-.67-.62.24-.95.45-.97.67Z"/>
      <path class="cls-23" d="M137.46,31.32c-.6-.22-.98-.23-1.15-.06.6.21.98.23,1.15.06Z"/>
      <path class="cls-10" d="M70.99,117.49c.58-.21.88-.43.9-.62-.58.22-.88.42-.9.62Z"/>
      <path class="cls-10" d="M80.98,114.42c.52-.2.79-.4.8-.59-.52.21-.79.4-.8.59Z"/>
      <path class="cls-23" d="M100.87,32.91c-.59.19-.9.4-.92.63.59-.19.9-.4.92-.63Z"/>
      <path class="cls-10" d="M123.01,101.59c.63-.24.95-.48.97-.69-.63.25-.95.47-.97.69Z"/>
      <path class="cls-10" d="M147.35,89.82c-.63.24-.95.47-.97.69.63-.24.95-.47.97-.69Z"/>
      <path class="cls-23" d="M91.71,36.88c-.53.29-.79.54-.77.77.53-.29.79-.54.77-.77Z"/>
      <path class="cls-10" d="M116.98,103.49c.56-.22.85-.43.86-.63-.56.22-.85.42-.86.63Z"/>
      <path class="cls-23" d="M56.75,103.84c.17.54.39.75.69.64-.15-.58-.39-.78-.69-.64Z"/>
      <path class="cls-23" d="M93.71,35.84c-.52.25-.78.48-.77.7.52-.25.78-.48.77-.7Z"/>
      <path class="cls-10" d="M143,95.52c.6-.22.91-.44.94-.65-.6.23-.92.44-.94.65Z"/>
      <path class="cls-10" d="M114.44,100.52c.6-.23.9-.44.92-.65-.6.22-.9.45-.92.65Z"/>
      <path class="cls-10" d="M71.36,113.84c-.61.24-.92.47-.93.68.61-.24.92-.46.93-.68Z"/>
      <path class="cls-10" d="M84,113.55c.61-.24.93-.46.94-.67-.61.24-.93.46-.94.67Z"/>
      <path class="cls-10" d="M74.38,112.95c-.54.21-.81.41-.83.61.54-.21.82-.41.83-.61Z"/>
      <path class="cls-23" d="M165.57,25.78c-.55.16-.77.38-.65.69.57-.15.79-.38.65-.69Z"/>
      <path class="cls-23" d="M57.88,105.67c.39.5.72.7.93.64-.41-.49-.7-.71-.93-.64Z"/>
      <path class="cls-10" d="M129.99,99.51c.59-.22.89-.44.91-.65-.59.23-.89.44-.91.65Z"/>
      <path class="cls-10" d="M153.35,87.84c-.61.23-.93.46-.94.68.61-.24.93-.46.94-.68Z"/>
      <path class="cls-10" d="M121.38,97.94c-.54.21-.82.41-.83.6.54-.21.82-.41.83-.6Z"/>
      <path class="cls-10" d="M77.38,111.93c-.55.21-.83.42-.84.62.55-.22.83-.41.84-.62Z"/>
      <path class="cls-10" d="M139.98,96.39c.51-.19.77-.39.79-.57-.58.1-.84.28-.79.57Z"/>
      <path class="cls-10" d="M127.39,96.51c.63-.25.95-.47.96-.7-.63.24-.95.48-.96.7Z"/>
      <path class="cls-23" d="M95.71,34.86c-.53.25-.78.48-.78.7.53-.25.78-.48.78-.7Z"/>
      <path class="cls-23" d="M62.45,87.74c-.48.18-.67.38-.56.65.52-.15.7-.38.56-.65Z"/>
      <path class="cls-2" d="M189.5,284.42c-.74-.39-1.31-.53-1.7-.43.74.39,1.31.53,1.7.43Z"/>
      <path class="cls-2" d="M190.05,285.09c.2.17.36.19.49.06-.3-.36-.54-.46-.71-.28.08.09.15.17.22.23Z"/>
      <path class="cls-22" d="M138.01,47.74c-7.51-5.53-22.73-5.46-30.3.14-6.13,4.53-6.27,12.14.31,16.08,3.7,2.21,8.35,2.82,12.99,4.2,5.95-1.38,12.05-1.82,16.9-4.5,6.84-3.78,6.44-11.25.1-15.92ZM133.06,59.65c-6.45,3.17-13.16,3.14-19.68.27-1.58-.69-3.58-2.66-3.59-4.05,0-1.37,2.1-3.01,3.61-4.03,1.31-.89,3.09-1.09,4.67-1.6,5.52.43,10.27.8,14.88,1.83,1.39.31,3.25,2.42,3.29,3.76.04,1.27-1.75,3.12-3.18,3.82Z"/>
    </g>
  </g>
</svg>