<svg width="32" height="32" viewBox="0 0 32 32" fill="none" xmlns="http://www.w3.org/2000/svg">
<path d="M17.6453 0C19.4453 0.00479989 20.3588 0.0143997 21.1476 0.0367991L21.458 0.0479988C21.8164 0.0607985 22.17 0.0767981 22.5972 0.0959977C24.2996 0.175996 25.4611 0.44479 26.4803 0.839981C27.5363 1.24637 28.4259 1.79676 29.3154 2.68474C30.129 3.48455 30.7585 4.45204 31.1602 5.51987C31.5554 6.53905 31.8242 7.70062 31.9042 9.40458C31.9234 9.83017 31.9394 10.1838 31.9522 10.5438L31.9618 10.8541C31.9858 11.6413 31.9954 12.5549 31.9986 14.3549L32.0002 15.5484V17.6444C32.0041 18.8114 31.9918 19.9784 31.9634 21.1451L31.9538 21.4555C31.941 21.8155 31.925 22.1691 31.9058 22.5947C31.8258 24.2986 31.5538 25.4586 31.1602 26.4794C30.7597 27.5478 30.13 28.5155 29.3154 29.3145C28.5154 30.1278 27.548 30.7573 26.4803 31.1593C25.4611 31.5545 24.2996 31.8233 22.5972 31.9033C22.2176 31.9211 21.8378 31.9371 21.458 31.9513L21.1476 31.9609C20.3588 31.9833 19.4453 31.9945 17.6453 31.9977L16.4517 31.9993H14.3574C13.1898 32.0033 12.0223 31.991 10.8551 31.9625L10.5447 31.9529C10.1649 31.9385 9.78513 31.9219 9.4055 31.9033C7.70314 31.8233 6.54157 31.5545 5.52079 31.1593C4.45309 30.7583 3.48599 30.1287 2.68726 29.3145C1.87295 28.515 1.24285 27.5475 0.840904 26.4794C0.445713 25.4602 0.176919 24.2986 0.0969208 22.5947C0.0790954 22.215 0.0630956 21.8353 0.048922 21.4555L0.0409224 21.1451C0.0114384 19.9784 -0.00189609 18.8114 0.00092318 17.6444V14.3549C-0.00354226 13.1879 0.00819205 12.0208 0.0361225 10.8541L0.0473222 10.5438C0.0601219 10.1838 0.0761214 9.83017 0.095321 9.40458C0.175319 7.70062 0.444113 6.54065 0.839303 5.51987C1.24108 4.45094 1.87243 3.48316 2.68886 2.68474C3.48739 1.87111 4.45385 1.24155 5.52079 0.839981C6.54157 0.44479 7.70154 0.175996 9.4055 0.0959977C9.83109 0.0767981 10.1863 0.0607985 10.5447 0.0479988L10.8551 0.038399C12.0218 0.0099721 13.1888 -0.00229546 14.3558 0.00159985L17.6453 0ZM16.0005 7.99981C13.8789 7.99981 11.8441 8.84265 10.3438 10.3429C8.84357 11.8432 8.00074 13.8779 8.00074 15.9996C8.00074 18.1213 8.84357 20.1561 10.3438 21.6563C11.8441 23.1566 13.8789 23.9994 16.0005 23.9994C18.1222 23.9994 20.157 23.1566 21.6573 21.6563C23.1575 20.1561 24.0004 18.1213 24.0004 15.9996C24.0004 13.8779 23.1575 11.8432 21.6573 10.3429C20.157 8.84265 18.1222 7.99981 16.0005 7.99981ZM16.0005 11.1997C16.6309 11.1996 17.2551 11.3237 17.8374 11.5648C18.4198 11.8059 18.949 12.1594 19.3948 12.605C19.8406 13.0507 20.1942 13.5797 20.4356 14.1621C20.6769 14.7444 20.8011 15.3685 20.8012 15.9988C20.8013 16.6292 20.6773 17.2533 20.4362 17.8357C20.1951 18.4181 19.8416 18.9473 19.396 19.3931C18.9503 19.8389 18.4212 20.1925 17.8389 20.4338C17.2566 20.6752 16.6325 20.7994 16.0022 20.7995C14.7291 20.7995 13.5083 20.2938 12.6081 19.3937C11.708 18.4935 11.2023 17.2726 11.2023 15.9996C11.2023 14.7266 11.708 13.5057 12.6081 12.6056C13.5083 11.7054 14.7291 11.1997 16.0022 11.1997M24.402 5.59987C23.8715 5.59987 23.3628 5.81058 22.9878 6.18564C22.6127 6.56071 22.402 7.0694 22.402 7.59982C22.402 8.13024 22.6127 8.63894 22.9878 9.014C23.3628 9.38907 23.8715 9.59978 24.402 9.59978C24.9324 9.59978 25.4411 9.38907 25.8161 9.014C26.1912 8.63894 26.4019 8.13024 26.4019 7.59982C26.4019 7.0694 26.1912 6.56071 25.8161 6.18564C25.4411 5.81058 24.9324 5.59987 24.402 5.59987Z" fill="#252526"/>
</svg>
