<svg width="44" height="44" viewBox="0 0 44 44" fill="none" xmlns="http://www.w3.org/2000/svg">
<path fill-rule="evenodd" clip-rule="evenodd" d="M30 16C30 18.1217 29.1571 20.1566 27.6569 21.6569C26.1566 23.1571 24.1217 24 22 24C19.8783 24 17.8434 23.1571 16.3431 21.6569C14.8429 20.1566 14 18.1217 14 16C14 13.8783 14.8429 11.8434 16.3431 10.3431C17.8434 8.84285 19.8783 8 22 8C24.1217 8 26.1566 8.84285 27.6569 10.3431C29.1571 11.8434 30 13.8783 30 16ZM26 16C26 17.0609 25.5786 18.0783 24.8284 18.8284C24.0783 19.5786 23.0609 20 22 20C20.9391 20 19.9217 19.5786 19.1716 18.8284C18.4214 18.0783 18 17.0609 18 16C18 14.9391 18.4214 13.9217 19.1716 13.1716C19.9217 12.4214 20.9391 12 22 12C23.0609 12 24.0783 12.4214 24.8284 13.1716C25.5786 13.9217 26 14.9391 26 16Z" fill="#252526"/>
<path fill-rule="evenodd" clip-rule="evenodd" d="M22 0C9.85 0 0 9.85 0 22C0 34.15 9.85 44 22 44C34.15 44 44 34.15 44 22C44 9.85 34.15 0 22 0ZM4 22C4 26.18 5.426 30.028 7.816 33.084C9.49446 30.8798 11.6598 29.0935 14.1429 27.8646C16.6259 26.6358 19.3595 25.9976 22.13 26C24.8647 25.9974 27.5638 26.619 30.0219 27.8176C32.4799 29.0161 34.6319 30.7598 36.314 32.916C38.0469 30.6432 39.2137 27.9904 39.7178 25.1772C40.2219 22.3639 40.0489 19.4711 39.213 16.738C38.3771 14.0049 36.9024 11.5101 34.911 9.46007C32.9195 7.41005 30.4685 5.86372 27.7608 4.94902C25.053 4.03432 22.1664 3.77754 19.3397 4.19995C16.513 4.62235 13.8276 5.71178 11.5055 7.37811C9.18349 9.04443 7.29162 11.2397 5.98646 13.7824C4.68129 16.325 4.00036 19.1419 4 22ZM22 40C17.8679 40.0062 13.8605 38.5847 10.656 35.976C11.9459 34.1295 13.6627 32.6218 15.6604 31.5814C17.6581 30.5409 19.8776 29.9984 22.13 30C24.3543 29.9982 26.547 30.5271 28.5259 31.5428C30.5047 32.5585 32.2127 34.0317 33.508 35.84C30.2786 38.5334 26.2052 40.0059 22 40Z" fill="#252526"/>
</svg>
